<svg width="50" height="50" viewBox="0 0 50 50" fill="none" xmlns="http://www.w3.org/2000/svg">
<path d="M41.6667 37.5H37.5V19.2708L25 27.0833L12.5 19.2708V37.5H8.33332V12.5H10.8333L25 21.3541L39.1667 12.5H41.6667V37.5ZM41.6667 8.33331H8.33332C6.02082 8.33331 4.16666 10.1875 4.16666 12.5V37.5C4.16666 38.605 4.60564 39.6649 5.38704 40.4463C6.16845 41.2277 7.22825 41.6666 8.33332 41.6666H41.6667C42.7717 41.6666 43.8315 41.2277 44.6129 40.4463C45.3943 39.6649 45.8333 38.605 45.8333 37.5V12.5C45.8333 11.3949 45.3943 10.3351 44.6129 9.5537C43.8315 8.7723 42.7717 8.33331 41.6667 8.33331V8.33331Z" fill="black"/>
</svg>
