<svg width="1536" height="1536" viewBox="0 0 1536 1536" fill="none" xmlns="http://www.w3.org/2000/svg">
<path d="M1280 482C1242.67 498.667 1202.33 510 1159 516C1204.33 489.333 1235.33 450.333 1252 399C1208.67 424.333 1164 441.333 1118 450C1077.33 406 1026.33 384 965 384C907 384 857.5 404.5 816.5 445.5C775.5 486.5 755 536 755 594C755 613.333 756.667 629.333 760 642C674 637.333 593.333 615.667 518 577C442.667 538.333 378.667 486.667 326 422C306.667 455.333 297 490.667 297 528C297 604 327.333 662.333 388 703C356.667 702.333 323.333 693.667 288 677V679C288 729 304.667 773.5 338 812.5C371.333 851.5 412.333 875.667 461 885C441.667 890.333 424.667 893 410 893C401.333 893 388.333 891.667 371 889C385 931 409.833 965.667 445.5 993C481.167 1020.33 521.667 1034.33 567 1035C489.667 1095 402.667 1125 306 1125C288.667 1125 272 1124 256 1122C354.667 1184.67 462 1216 578 1216C652.667 1216 722.667 1204.17 788 1180.5C853.333 1156.83 909.333 1125.17 956 1085.5C1002.67 1045.83 1042.83 1000.17 1076.5 948.5C1110.17 896.833 1135.17 842.833 1151.5 786.5C1167.83 730.167 1176 674 1176 618C1176 606 1175.67 597 1175 591C1217 561 1252 524.667 1280 482ZM1536 288V1248C1536 1327.33 1507.83 1395.17 1451.5 1451.5C1395.17 1507.83 1327.33 1536 1248 1536H288C208.667 1536 140.833 1507.83 84.5 1451.5C28.1667 1395.17 0 1327.33 0 1248V288C0 208.667 28.1667 140.833 84.5 84.5C140.833 28.1667 208.667 0 288 0H1248C1327.33 0 1395.17 28.1667 1451.5 84.5C1507.83 140.833 1536 208.667 1536 288Z" fill="#FF4F4F"/>
</svg>
