<svg width="50" height="50" viewBox="0 0 50 50" fill="none" xmlns="http://www.w3.org/2000/svg">
<path d="M45.8334 13.6459C45.8099 12.747 45.7404 11.85 45.625 10.9584C45.4695 10.1774 45.2102 9.42066 44.8542 8.70835C44.4818 7.93566 43.9817 7.23133 43.375 6.62502C42.7627 6.02545 42.0596 5.52625 41.2917 5.14585C40.5784 4.79678 39.8217 4.54455 39.0417 4.39585C38.1585 4.26356 37.2678 4.18702 36.375 4.16669H13.6459C12.747 4.1901 11.85 4.25963 10.9584 4.37502C10.1774 4.53058 9.42066 4.78982 8.70835 5.14585C7.93566 5.51822 7.23133 6.0183 6.62502 6.62502C6.02545 7.23733 5.52625 7.94042 5.14585 8.70835C4.79678 9.42161 4.54455 10.1783 4.39585 10.9584C4.26356 11.8416 4.18702 12.7322 4.16669 13.625V36.3542C4.1901 37.253 4.25963 38.15 4.37502 39.0417C4.53058 39.8227 4.78982 40.5794 5.14585 41.2917C5.51822 42.0644 6.0183 42.7687 6.62502 43.375C7.23733 43.9746 7.94042 44.4738 8.70835 44.8542C9.42161 45.2033 10.1783 45.4555 10.9584 45.6042C11.8416 45.7365 12.7322 45.813 13.625 45.8334H36.3542C37.253 45.8099 38.15 45.7404 39.0417 45.625C39.8227 45.4695 40.5794 45.2102 41.2917 44.8542C42.0644 44.4818 42.7687 43.9817 43.375 43.375C43.9746 42.7627 44.4738 42.0596 44.8542 41.2917C45.2033 40.5784 45.4555 39.8217 45.6042 39.0417C45.7365 38.1585 45.813 37.2678 45.8334 36.375V14.75V13.6459ZM25.4792 39.5834C22.9772 39.571 20.519 38.926 18.3334 37.7084L10.4167 39.7917L12.5 32.0417C11.1565 29.7843 10.4375 27.2102 10.4167 24.5834C10.425 21.6311 11.3067 18.7473 12.9508 16.2952C14.5948 13.8431 16.9278 11.9324 19.6557 10.8036C22.3836 9.67481 25.3846 9.3785 28.2806 9.95198C31.1766 10.5255 33.8382 11.9431 35.9301 14.0263C38.022 16.1095 39.4507 18.7651 40.0362 21.6587C40.6217 24.5523 40.3378 27.5545 39.2204 30.2871C38.103 33.0197 36.2019 35.3606 33.7567 37.0148C31.3114 38.6691 28.4314 39.5628 25.4792 39.5834V39.5834ZM25.4792 12.2292C23.2705 12.2545 21.1079 12.8646 19.2116 13.9974C17.3153 15.1302 15.7531 16.7453 14.684 18.6782C13.6148 20.6111 13.077 22.7928 13.1252 25.0011C13.1734 27.2095 13.8059 29.3656 14.9584 31.25L15.25 31.7292L14 36.2917L18.75 35L19.2084 35.2709C21.1033 36.387 23.2592 36.9835 25.4584 37C28.7736 37 31.953 35.6831 34.2972 33.3389C36.6414 30.9947 37.9584 27.8152 37.9584 24.5C37.9584 21.1848 36.6414 18.0054 34.2972 15.6612C31.953 13.317 28.7736 12 25.4584 12L25.4792 12.2292ZM32.7709 29.9792C32.498 30.4343 32.1326 30.8271 31.6984 31.1322C31.2642 31.4372 30.7707 31.6477 30.25 31.75C29.472 31.8922 28.671 31.8422 27.9167 31.6042C27.207 31.3823 26.5113 31.1179 25.8334 30.8125C23.2578 29.5202 21.0614 27.5821 19.4584 25.1875C18.5873 24.0781 18.0587 22.7387 17.9375 21.3334C17.9251 20.7496 18.0355 20.1697 18.2617 19.6314C18.4878 19.093 18.8245 18.6082 19.25 18.2084C19.3754 18.0662 19.5291 17.952 19.7014 17.8731C19.8736 17.7941 20.0605 17.7522 20.25 17.75H20.8334C21.0625 17.75 21.375 17.75 21.6667 18.3959C21.9584 19.0417 22.7292 20.9792 22.8334 21.1667C22.8845 21.2666 22.9112 21.3773 22.9112 21.4896C22.9112 21.6019 22.8845 21.7126 22.8334 21.8125C22.7413 22.0389 22.6148 22.2497 22.4584 22.4375C22.2709 22.6667 22.0625 22.9375 21.8959 23.1042C21.7292 23.2709 21.5209 23.4792 21.7292 23.8542C22.296 24.8108 22.9977 25.6809 23.8125 26.4375C24.6999 27.2216 25.7144 27.8486 26.8125 28.2917C27.1875 28.4792 27.4167 28.4584 27.625 28.2917C27.8334 28.125 28.5625 27.2084 28.8125 26.8334C29.0625 26.4584 29.3125 26.5209 29.6459 26.6459C29.9792 26.7709 31.8334 27.6667 32.2084 27.8542C32.5834 28.0417 32.8125 28.125 32.9167 28.2917C33.007 28.8369 32.9568 29.3962 32.7709 29.9167V29.9792Z" fill="black"/>
</svg>
